<svg width="26" height="26" viewBox="0 0 26 26" fill="none" xmlns="http://www.w3.org/2000/svg">
<path d="M18.7428 11.375H25.1323C25.2095 11.375 25.285 11.397 25.3502 11.4385C25.4153 11.4799 25.4673 11.539 25.5 11.6089C25.5328 11.6788 25.5449 11.7566 25.535 11.8332C25.5252 11.9098 25.4937 11.9819 25.4443 12.0412L22.2495 15.8762C22.2114 15.9219 22.1637 15.9587 22.1098 15.984C22.0559 16.0092 21.997 16.0223 21.9375 16.0223C21.878 16.0223 21.8192 16.0092 21.7653 15.984C21.7114 15.9587 21.6636 15.9219 21.6255 15.8762L18.4308 12.0412C18.3814 11.9819 18.3499 11.9098 18.34 11.8332C18.3301 11.7566 18.3423 11.6788 18.375 11.6089C18.4078 11.539 18.4597 11.4799 18.5249 11.4385C18.59 11.397 18.6656 11.375 18.7428 11.375ZM0.867768 14.625H7.25727C7.33446 14.6249 7.41005 14.6029 7.47518 14.5615C7.54031 14.5201 7.59229 14.4609 7.62502 14.391C7.65776 14.3211 7.6699 14.2433 7.66003 14.1668C7.65015 14.0902 7.61867 14.018 7.56927 13.9587L4.37452 10.1237C4.33639 10.078 4.28868 10.0412 4.23477 10.016C4.18085 9.99074 4.12205 9.97766 4.06252 9.97766C4.00299 9.97766 3.94418 9.99074 3.89027 10.016C3.83635 10.0412 3.78864 10.078 3.75052 10.1237L0.555768 13.9587C0.506364 14.018 0.474882 14.0902 0.465008 14.1668C0.455133 14.2433 0.467276 14.3211 0.500013 14.391C0.53275 14.4609 0.584727 14.5201 0.649857 14.5615C0.714987 14.6029 0.790575 14.6249 0.867768 14.625Z" fill="white"/>
<path fill-rule="evenodd" clip-rule="evenodd" d="M13 4.87495C10.478 4.87495 8.22251 6.02383 6.73239 7.8292C6.66585 7.91544 6.58265 7.98743 6.48773 8.04087C6.39281 8.09432 6.28812 8.12813 6.17987 8.1403C6.07162 8.15247 5.96204 8.14275 5.85762 8.11172C5.75321 8.08068 5.6561 8.02897 5.57207 7.95966C5.48804 7.89034 5.41881 7.80484 5.36849 7.70823C5.31817 7.61162 5.28778 7.50588 5.27915 7.39729C5.27052 7.2887 5.2838 7.17949 5.31822 7.07614C5.35264 6.9728 5.40749 6.87743 5.47951 6.7957C6.66932 5.35518 8.24785 4.28672 10.0273 3.71739C11.8068 3.14806 13.7124 3.10183 15.5174 3.5842C17.3224 4.06656 18.9509 5.05722 20.2092 6.43834C21.4674 7.81947 22.3025 9.53294 22.6151 11.375H20.9625C20.5879 9.53973 19.5907 7.89031 18.1397 6.70583C16.6887 5.52135 14.8731 4.87457 13 4.87495ZM5.03751 14.625C5.34514 16.1275 6.07158 17.5123 7.13291 18.6194C8.19424 19.7266 9.54715 20.5109 11.0353 20.8817C12.5235 21.2525 14.0862 21.1947 15.543 20.715C16.9997 20.2353 18.291 19.3532 19.2676 18.1707C19.3342 18.0845 19.4174 18.0125 19.5123 17.959C19.6072 17.9056 19.7119 17.8718 19.8202 17.8596C19.9284 17.8474 20.038 17.8572 20.1424 17.8882C20.2468 17.9192 20.3439 17.9709 20.428 18.0402C20.512 18.1096 20.5812 18.1951 20.6315 18.2917C20.6819 18.3883 20.7122 18.494 20.7209 18.6026C20.7295 18.7112 20.7162 18.8204 20.6818 18.9238C20.6474 19.0271 20.5925 19.1225 20.5205 19.2042C19.3307 20.6447 17.7522 21.7132 15.9727 22.2825C14.1932 22.8518 12.2876 22.8981 10.4826 22.4157C8.67759 21.9333 7.04911 20.9427 5.79084 19.5616C4.53258 18.1804 3.69749 16.467 3.38489 14.625H5.03751Z" fill="white"/>
</svg>
